<mxfile host="app.diagrams.net" agent="Mozilla/5.0 (Windows NT 10.0; Win64; x64) AppleWebKit/537.36 (KHTML, like Gecko) Chrome/131.0.0.0 Safari/537.36 Edg/131.0.0.0" version="24.8.6">
  <diagram name="Page-1" id="17mNhOJHaFhsNdc38T4_">
    <mxGraphModel dx="1379" dy="785" grid="1" gridSize="10" guides="1" tooltips="1" connect="1" arrows="1" fold="1" page="1" pageScale="1" pageWidth="827" pageHeight="1169" math="0" shadow="0">
      <root>
        <mxCell id="0" />
        <mxCell id="1" parent="0" />
        <mxCell id="gphKkKduA3pPyw4U88uj-4" value="" style="edgeStyle=orthogonalEdgeStyle;rounded=0;orthogonalLoop=1;jettySize=auto;html=1;" edge="1" parent="1" source="gphKkKduA3pPyw4U88uj-2" target="gphKkKduA3pPyw4U88uj-3">
          <mxGeometry relative="1" as="geometry" />
        </mxCell>
        <mxCell id="gphKkKduA3pPyw4U88uj-2" value="Start" style="rounded=0;whiteSpace=wrap;html=1;" vertex="1" parent="1">
          <mxGeometry x="340" y="100" width="120" height="60" as="geometry" />
        </mxCell>
        <mxCell id="gphKkKduA3pPyw4U88uj-6" value="" style="edgeStyle=orthogonalEdgeStyle;rounded=0;orthogonalLoop=1;jettySize=auto;html=1;" edge="1" parent="1" source="gphKkKduA3pPyw4U88uj-3" target="gphKkKduA3pPyw4U88uj-5">
          <mxGeometry relative="1" as="geometry" />
        </mxCell>
        <mxCell id="gphKkKduA3pPyw4U88uj-3" value="Request action, Encode or decode" style="rounded=1;whiteSpace=wrap;html=1;" vertex="1" parent="1">
          <mxGeometry x="340" y="220" width="120" height="60" as="geometry" />
        </mxCell>
        <mxCell id="gphKkKduA3pPyw4U88uj-8" value="" style="edgeStyle=orthogonalEdgeStyle;rounded=0;orthogonalLoop=1;jettySize=auto;html=1;" edge="1" parent="1" source="gphKkKduA3pPyw4U88uj-5" target="gphKkKduA3pPyw4U88uj-7">
          <mxGeometry relative="1" as="geometry" />
        </mxCell>
        <mxCell id="gphKkKduA3pPyw4U88uj-5" value="Request for text" style="rounded=1;whiteSpace=wrap;html=1;" vertex="1" parent="1">
          <mxGeometry x="340" y="340" width="120" height="60" as="geometry" />
        </mxCell>
        <mxCell id="gphKkKduA3pPyw4U88uj-10" value="" style="edgeStyle=orthogonalEdgeStyle;rounded=0;orthogonalLoop=1;jettySize=auto;html=1;" edge="1" parent="1" source="gphKkKduA3pPyw4U88uj-7" target="gphKkKduA3pPyw4U88uj-9">
          <mxGeometry relative="1" as="geometry" />
        </mxCell>
        <mxCell id="gphKkKduA3pPyw4U88uj-7" value="Request for shift number." style="rounded=1;whiteSpace=wrap;html=1;" vertex="1" parent="1">
          <mxGeometry x="340" y="430" width="120" height="60" as="geometry" />
        </mxCell>
        <mxCell id="gphKkKduA3pPyw4U88uj-9" value="" style="rounded=1;whiteSpace=wrap;html=1;" vertex="1" parent="1">
          <mxGeometry x="340" y="570" width="120" height="60" as="geometry" />
        </mxCell>
      </root>
    </mxGraphModel>
  </diagram>
</mxfile>
